# xmcd CD database file
#
# Track frame offsets:
#	150
#	15245
#	21214
#	22682
#	32114
#	35797
#	52816
#	58116
#	63479
#	72545
#	82666
#	88831
#	98932
#	112851
#	124168
#	131957
#	139657
#	145484
#	151696
#	153937
#	166295
#	172984
#	184518
#	190297
#	202158
#	206504
#	208616
#	219476
#	224683
#	232561
#	233669
#	236069
#
# Disc length: 3584 seconds
#
# Revision: 2
# Processed by: cddbd v1.5.2PL0 Copyright (c) Steve Scherf et al.
# Submitted via: CDex 1.70beta2
#
DISCID=bb0dfe20
DTITLE=Ralf Kiwit - Sybille Bierögel - Antja Hemming - Sternstunden im Kleinkindturnen
DYEAR=2010
DGENRE=Kinderlieder
TTITLE0=Komm und mach mit
TTITLE1=Hopp, hopp, hopp, Pferdchen lauf Galopp
TTITLE2=Klopfe, klopfe Hämmerchen
TTITLE3=Old Mac Donald hat 'ne Farm
TTITLE4=Alle Tiere schlafen
TTITLE5=Schweben und Fliegen
TTITLE6=Auf der grünen Wiese steht ein Karussell
TTITLE7=Hinter der alten Mauer
TTITLE8=Wir Fröschelein
TTITLE9=Marsch der kleinen Hunde
TTITLE10=Leise, leise wie die Katzen schleichen
TTITLE11=Mein Auto fährt, tüt, tüt
TTITLE12=Wir springen, hüpfen und laufen
TTITLE13=Bruder Jakob, Bruder Jakob
TTITLE14=Ein großer, ein runder, ein roter Luftballon
TTITLE15=Und wer als Prinzessin gekommen ist, tritt ein
TTITLE16=Mit Fingerchen, mit Fingerchen
TTITLE17=Zehn kleine Zappelmänner
TTITLE18=Schotter fahren
TTITLE19=Wer will fleißige Handwerker sehn
TTITLE20=Meine Hände sind verschwunden
TTITLE21=Ich bin die kleine Hexe
TTITLE22=Aus einem Apfel, oh wie nett
TTITLE23=Schmetterling, du kleines Ding
TTITLE24=Häschen in der Grube
TTITLE25=Kastanienrätsel
TTITLE26=Die alte Wolke hat geniest
TTITLE27=Ein kleiner Stern
TTITLE28=Funkel, funkel, kleiner Stern
TTITLE29=1, 2, 3 - das Turnen ist vorbei
TTITLE30=Das Turnen ist zu Ende
TTITLE31=Wir kommen jetzt zur Ruh'
EXTD=YEAR: 2010
EXTT0=
EXTT1=
EXTT2=
EXTT3=
EXTT4=
EXTT5=
EXTT6=
EXTT7=
EXTT8=
EXTT9=
EXTT10=
EXTT11=
EXTT12=
EXTT13=
EXTT14=
EXTT15=
EXTT16=
EXTT17=
EXTT18=
EXTT19=
EXTT20=
EXTT21=
EXTT22=
EXTT23=
EXTT24=
EXTT25=
EXTT26=
EXTT27=
EXTT28=
EXTT29=
EXTT30=
EXTT31=
PLAYORDER=
